<svg width="35" height="35" viewBox="0 0 35 35" fill="none" xmlns="http://www.w3.org/2000/svg">
<path d="M26.25 14.875C26.25 17.3852 25.4352 19.7039 24.0625 21.5852L30.9859 28.5141C31.6695 29.1977 31.6695 30.3078 30.9859 30.9914C30.3023 31.675 29.1922 31.675 28.5086 30.9914L21.5852 24.0625C19.7039 25.4352 17.3852 26.25 14.875 26.25C8.59141 26.25 3.5 21.1586 3.5 14.875C3.5 8.59141 8.59141 3.5 14.875 3.5C21.1586 3.5 26.25 8.59141 26.25 14.875ZM14.875 22.75C19.2227 22.75 22.75 19.2227 22.75 14.875C22.75 10.5273 19.2227 7 14.875 7C10.5273 7 7 10.5273 7 14.875C7 19.2227 10.5273 22.75 14.875 22.75Z" fill="#503620"/>
</svg>
